<?xml version="1.0" encoding="UTF-8"?>
<svg width="128" height="128" version="1.1" viewBox="0 0 100 100" xmlns="http://www.w3.org/2000/svg" xmlns:cc="http://creativecommons.org/ns#" xmlns:dc="http://purl.org/dc/elements/1.1/" xmlns:rdf="http://www.w3.org/1999/02/22-rdf-syntax-ns#">
<path transform="scale(.78125)" d="m63.703 0a64 64 0 0 0-63.703 64 64 64 0 0 0 64 64 64 64 0 0 0 64-64 64 64 0 0 0-64-64 64 64 0 0 0-0.29688 0zm0.29688 23.623c1.2376 0 2.4749 0.32094 3.584 0.96094l27.752 16.02c0.46336 0.2688 0.74414 0.76177 0.74414 1.293 0 0.53504-0.28529 1.028-0.74609 1.293v-0.001953l-28.855 16.662c-1.5347 0.8832-3.4249 0.8832-4.9609 0l-28.852-16.66c-0.4608-0.2688-0.74805-0.75726-0.74805-1.291 0-0.53376 0.28469-1.0281 0.74805-1.2969l27.75-16.018c1.1085-0.64 2.3464-0.96094 3.584-0.96094zm-36.424 27.693c0.2576 3.2e-4 0.51569 0.068725 0.74609 0.20312v-0.003906l28.852 16.66c1.5373 0.88576 2.4805 2.5228 2.4805 4.2969v33.318c0 0.5312-0.28139 1.0242-0.74219 1.293-0.46336 0.2688-1.0315 0.2688-1.4961 0l-27.75-16.023c-2.2182-1.28-3.584-3.6464-3.584-6.209v-32.043c0-0.53376 0.28469-1.0267 0.74805-1.293 0.23168-0.13312 0.48849-0.19954 0.74609-0.19922zm72.848 0c0.2576-1.6e-4 0.51505 0.066099 0.74609 0.19922 0.46151 0.26591 0.74735 0.75614 0.74805 1.293v0.001953 32.047c0 2.56-1.3632 4.929-3.584 6.209l-27.748 16.02c-0.46336 0.2688-1.0333 0.26624-1.4941 0-0.46208-0.2688-0.74805-0.76049-0.74805-1.293v-33.318c0-1.7741 0.94838-3.4079 2.4844-4.2949l28.85-16.664c0.23104-0.13248 0.4885-0.19906 0.7461-0.19922z" fill="#015a9e" stroke-width="1.28"/>
</svg>
