<svg width="16" height="16" xmlns="http://www.w3.org/2000/svg" viewBox="0 4.867 100 88.751" fill="#fff">
  <path d="M36.923,93.617H23.51c-7.043,0-12.798-4.2-12.798-14.593V61.835c0-6.204-8.241-6.898-10.712-6.898V43.54c2.471,0,10.712-0.695,10.712-6.893V19.358c0-10.391,5.462-14.491,12.798-14.491h10.413v11.392h-4.858c-6.048,0-6.458,3.695-6.458,6.394v16.095c-0.085,9.298-5.742,9.991-9.913,10.397v0.19c4.169,0.308,9.828,1.009,9.913,10.307v16.186c0,2.7,0.41,6.394,6.458,6.394h4.858V93.617z"></path>
  <path d="M63.064,4.867h10.712c6.744,0,12.5,4.206,12.5,14.59v17.19c0,6.197,7.94,6.893,10.724,6.893v11.398c-2.783,0-10.724,0.693-10.724,6.899v17.288c0,10.391-5.456,14.493-12.792,14.493h-10.42V82.225h4.861c6.055,0,6.449-3.694,6.449-6.394V59.732c0.098-9.294,5.75-9.989,9.924-10.396v-0.19c-4.175-0.308-9.826-1.008-9.924-10.304V22.654c0-2.699-0.395-6.394-6.449-6.394h-4.861V4.867z"></path>
</svg>
