<svg xmlns="http://www.w3.org/2000/svg" width="128" height="128" viewBox="0 0 100 100">
  <circle cx="50" cy="50" r="50" fill="#015A9E"/>
  <path fill="#B0FBFB" d="M77.28 38.134c0-.42-.223-.804-.584-1.012s-.805-.207-1.166 0L52.99 50.14c-1.2.693-1.94 1.97-1.94 3.356v26.03c0 .416.223.8.584 1.01.36.208.805.21 1.167 0L74.48 68.02c1.735-1 2.8-2.85 2.8-4.85V38.132zm-52.81-1.01c-.36-.21-.804-.21-1.166-.002s-.584.593-.584 1.01v25.034c0 2.002 1.067 3.85 2.8 4.85L47.2 80.534c.363.21.806.21 1.168 0 .36-.21.58-.595.58-1.01v-26.03c0-1.386-.737-2.664-1.938-3.356L24.47 37.122zm50.01-1.82c.36-.207.583-.592.583-1.01 0-.415-.22-.8-.582-1.01L52.8 20.768c-1.733-1-3.868-1-5.6 0L25.52 33.283c-.362.21-.584.595-.584 1.012 0 .417.224.8.584 1.01L48.06 48.32c1.2.69 2.678.69 3.877 0L74.48 35.303z" filter="drop-shadow(0 0 5px rgba(255,255,255,0.4))"/>
</svg>
